<svg version="1.1" id="Layer_1" xmlns="http://www.w3.org/2000/svg" xmlns:xlink="http://www.w3.org/1999/xlink" x="0px" y="0px"
	 width="100%" viewBox="0 0 1080 1080" enable-background="new 0 0 1080 1080" xml:space="preserve">
<path fill="#000000" opacity="0.000000" stroke="none" 
	d="
M518.000000,1081.000000 
	C346.853027,1081.000000 176.206055,1080.987061 5.559134,1081.087402 
	C1.918058,1081.089600 0.896435,1080.446655 0.897635,1076.560181 
	C1.007831,719.601379 1.009797,362.642517 0.881175,5.683751 
	C0.879664,1.489705 1.898709,0.897525 5.815227,0.898722 
	C362.607361,1.007820 719.399475,1.007924 1076.191650,0.897745 
	C1080.122437,0.896531 1081.119507,1.511191 1081.117920,5.690611 
	C1080.990234,362.482727 1080.989136,719.274841 1081.124878,1076.067017 
	C1081.126587,1080.476562 1079.987793,1081.100708 1075.934082,1081.098145 
	C890.122742,1080.985107 704.311340,1081.000000 518.000000,1081.000000 
z"/>
<path fill="#FFFFFF" opacity="1.000000" stroke="none" 
	d="
M588.589844,782.749390 
	C580.818848,784.274292 573.194946,783.696167 565.909729,785.631226 
	C562.771606,786.464722 561.697021,784.816589 561.057495,782.434265 
	C560.765259,781.345520 561.000366,780.114624 561.000366,778.948181 
	C561.000000,677.968811 560.999695,576.989441 561.000671,476.010101 
	C561.000732,469.939301 563.357056,467.961853 569.311829,466.892273 
	C579.010193,465.150269 588.908875,464.340790 598.562195,464.348969 
	C615.370300,464.363190 632.599548,464.321045 648.238342,472.126831 
	C655.227783,475.615417 661.694336,480.257751 666.757263,486.343719 
	C674.073669,495.138428 673.540100,505.254089 671.758179,515.868164 
	C669.661682,528.355469 661.364380,535.026611 651.084656,540.471130 
	C652.788208,542.382324 655.129456,543.068176 657.290894,544.010803 
	C670.947327,549.966614 678.266052,560.535706 679.996704,575.156067 
	C683.324219,603.267212 668.795837,621.862671 644.855225,628.997559 
	C636.713196,631.424072 628.296021,632.220215 619.925537,632.886597 
	C610.877502,633.606873 601.798340,634.651306 592.685852,633.969055 
	C590.381165,633.796509 589.957764,634.748474 589.961243,636.827942 
	C590.016602,669.987793 590.013977,703.147644 589.973328,736.307495 
	C589.970215,738.836487 590.493530,739.314148 593.135437,738.518921 
	C612.922852,732.562439 631.759521,724.554016 648.942932,712.978516 
	C662.162354,704.073425 674.625977,694.124756 685.175476,682.172729 
	C702.604004,662.427246 716.457703,640.465576 725.078674,615.332520 
	C731.707153,596.008179 735.429504,576.364197 736.192322,555.864197 
	C737.266541,526.996094 731.656128,499.636597 720.610413,473.227051 
	C712.374512,453.535492 700.659729,436.070526 686.613037,419.964935 
	C669.332153,400.151062 648.739380,384.927734 625.155151,373.703430 
	C607.967041,365.523163 589.946228,359.906372 571.055115,356.828400 
	C562.309265,355.403442 553.492981,354.758301 544.773193,354.323517 
	C536.888000,353.930328 528.773804,355.092224 520.772034,355.784821 
	C508.256775,356.868011 496.111511,359.333832 484.220490,363.076202 
	C475.827728,365.717590 467.579834,368.881256 459.441223,372.234039 
	C456.646393,373.385406 455.965759,373.199432 455.977539,370.235382 
	C456.029846,357.071625 456.081177,343.906494 455.919434,330.744537 
	C455.892914,328.586426 456.970062,327.721436 458.442749,327.186890 
	C470.382812,322.853088 482.657593,319.744507 495.043610,316.939575 
	C516.514954,312.077179 538.309265,312.417633 560.010132,313.216644 
	C575.347961,313.781403 590.571777,316.858795 605.339966,321.178467 
	C635.255493,329.928711 662.942078,343.300873 687.372925,362.899323 
	C706.573853,378.302277 723.354126,395.901031 737.220337,416.395691 
	C749.479553,434.515320 759.307312,453.698486 766.066589,474.458038 
	C770.711792,488.724640 774.059814,503.241638 776.221375,518.169006 
	C778.638672,534.862671 778.812500,551.606018 777.705811,568.172119 
	C775.947693,594.491028 769.716858,620.007629 759.031494,644.342285 
	C751.157776,662.273621 741.588196,679.216858 729.609619,694.627136 
	C719.053589,708.207458 707.161926,720.617004 693.902649,731.751038 
	C677.702332,745.354858 660.055786,756.518372 640.978149,765.511108 
	C624.357056,773.345947 606.977356,778.897888 588.589844,782.749390 
z"/>
<path fill="#FFFFFF" opacity="1.000000" stroke="none" 
	d="
M326.723755,447.705078 
	C335.504059,428.964844 346.412964,412.092682 359.722382,396.708893 
	C374.406616,379.735992 390.681305,364.587524 409.400391,352.163086 
	C414.215607,348.967041 419.418976,346.355225 424.228668,343.151703 
	C426.505890,341.634949 426.832916,342.976562 426.941193,344.489746 
	C427.139709,347.264160 426.178467,350.096741 426.194580,352.725830 
	C426.257416,362.971191 424.885803,373.275848 426.971039,383.477264 
	C427.751068,387.293427 425.952301,390.915253 425.957764,394.722839 
	C426.023132,440.216797 426.048370,485.710999 425.911987,531.204651 
	C425.900574,535.016846 426.727295,536.146057 430.717316,536.104553 
	C452.045532,535.882812 473.377960,535.914734 494.707123,536.086182 
	C498.155640,536.113831 499.130432,535.348694 499.093231,531.779724 
	C498.895172,512.784302 499.096161,493.784821 498.929596,474.788788 
	C498.889984,470.271454 500.802338,469.722412 504.772980,469.790894 
	C511.658325,469.909607 518.605042,470.930664 525.471680,469.137543 
	C528.643066,468.309387 531.143005,470.666595 530.984741,474.158813 
	C528.709290,524.382935 530.537415,574.633057 530.151978,624.869080 
	C530.110657,630.247070 528.615906,631.462585 523.613403,631.110901 
	C517.146240,630.656067 510.592102,630.613647 504.134003,631.128479 
	C499.399597,631.505920 498.861084,629.685974 498.907166,625.611572 
	C499.118195,606.949707 498.909302,588.283325 499.080750,569.620667 
	C499.112915,566.117371 498.581696,564.841858 494.607269,564.886597 
	C473.279449,565.126709 451.945801,565.138184 430.618347,564.881836 
	C426.417450,564.831360 425.895905,566.287659 425.925415,569.895020 
	C426.083466,589.224548 425.886566,608.557190 426.098724,627.885681 
	C426.139618,631.610657 424.889648,632.190491 421.599091,632.076538 
	C414.441956,631.828674 407.242401,631.616394 400.114349,632.134460 
	C395.336151,632.481750 394.909241,630.618042 394.916382,626.593262 
	C395.033997,560.268799 395.009583,493.944092 394.949738,427.619476 
	C394.948090,425.794098 396.095856,422.842987 394.098297,422.356384 
	C392.401611,421.943054 391.154053,424.766418 389.804993,426.384094 
	C379.185303,439.117981 370.434662,453.048431 363.544464,468.057922 
	C355.943573,484.615631 350.723145,501.924774 347.841125,520.017212 
	C346.262939,529.924316 345.102722,539.940613 345.264038,549.780273 
	C345.699249,576.328186 350.442505,602.183105 361.236389,626.730652 
	C369.696259,645.970093 380.754608,663.394714 394.602844,679.264343 
	C412.329895,699.578857 433.492859,715.251099 457.627899,726.730286 
	C474.618927,734.811707 492.483032,740.825256 511.382050,743.029114 
	C512.485718,743.157837 513.524109,743.812317 514.628967,743.970154 
	C523.997498,745.308777 524.000000,745.291199 524.000000,754.795349 
	C523.999939,764.460754 523.967651,774.126282 524.026184,783.791321 
	C524.038452,785.810120 524.029114,787.641602 521.258362,786.960449 
	C513.206238,784.981201 504.896088,784.856995 496.748779,783.229309 
	C483.616058,780.605591 470.737762,777.332153 458.233276,772.629761 
	C434.707275,763.782593 413.032318,751.718140 393.288513,736.019409 
	C385.425476,729.767517 377.909393,723.093201 370.926514,716.057556 
	C357.872040,702.904419 346.352295,688.290588 337.066254,672.149658 
	C327.442993,655.422607 319.085663,638.075806 313.825653,619.411743 
	C310.457336,607.459961 307.745117,595.396423 305.822662,583.073730 
	C303.118408,565.739807 303.582275,548.355896 304.267303,531.065002 
	C304.893036,515.271301 308.383850,499.720123 312.776367,484.406799 
	C316.373718,471.865570 321.168732,459.861359 326.723755,447.705078 
z"/>
<path fill="#273C5E00" opacity="1.000000" stroke="none" 
	d="
M599.031128,608.000000 
	C595.558105,607.930359 591.847290,608.933167 589.781921,607.524048 
	C587.103760,605.696960 590.029358,602.156738 590.018005,599.319885 
	C589.973572,588.164124 589.980530,577.008057 590.013245,565.852234 
	C590.021667,562.987122 587.166931,559.308533 589.659607,557.600586 
	C591.841003,556.105896 595.729309,557.058594 598.864868,557.008301 
	C608.522522,556.853394 618.261719,556.408875 627.461548,560.054688 
	C634.370544,562.792664 640.753113,566.104126 645.377991,572.617920 
	C652.585999,582.769836 647.978271,591.110657 641.737244,596.966187 
	C633.169495,605.004578 622.612976,608.090759 611.013794,608.004517 
	C607.184387,607.976013 603.354553,608.000000 599.031128,608.000000 
z"/>
<path fill="#273C5E00" opacity="1.000000" stroke="none" 
	d="
M609.768066,485.000000 
	C621.227783,486.622650 631.810059,489.054535 638.624939,499.088806 
	C641.933105,503.959747 642.117554,511.447906 638.507874,515.921448 
	C632.209412,523.727417 623.757568,528.036926 613.880005,528.888367 
	C607.117004,529.471313 600.258301,528.852234 593.451904,529.069458 
	C590.552673,529.162048 589.903442,528.202820 589.937988,525.455505 
	C590.084290,513.824829 590.007507,502.191315 589.991943,490.558807 
	C589.989624,488.800476 590.288086,486.996887 589.169495,485.000000 
	C596.042053,485.000000 602.668579,485.000000 609.768066,485.000000 
z"/>
</svg>